<svg width="76" height="76" viewBox="0 0 76 76" fill="none" xmlns="http://www.w3.org/2000/svg">
<rect width="76" height="76" rx="8" fill="#FFD9D8"/>
<path d="M47.75 34.9959C42.0986 29.9975 34.25 29.9975 28.25 34.9959" stroke="#DB241C" stroke-width="1.5" stroke-linecap="round" stroke-linejoin="round"/>
<path d="M23 30.4981C32.4737 22.5007 43.5263 22.5007 53 30.4979" stroke="#DB241C" stroke-width="1.5" stroke-linecap="round" stroke-linejoin="round"/>
<path d="M37.99 42.4776V44.7444M37.99 47.7007V47.7472M38.2166 38.011C38.74 37.9911 40.0625 38.2443 41.3524 40.5234L44.5826 46.0611C45.8164 47.8881 46.4231 51.1665 41.881 51.4123L38 51.4999L34.0762 51.3888C29.5341 51.1429 30.2331 47.8905 31.3745 46.0375L34.6048 40.4998C35.8946 38.2207 37.2172 37.9674 37.7407 37.9873L38.2166 38.011Z" stroke="#DB241C" stroke-width="1.5" stroke-linecap="round" stroke-linejoin="round"/>
</svg>
