<svg width="76" height="76" viewBox="0 0 76 76" fill="none" xmlns="http://www.w3.org/2000/svg">
<rect width="76" height="76" rx="8" fill="#FFE19C"/>
<path d="M38 38V50" stroke="#BA7F00" stroke-width="1.5" stroke-linecap="round"/>
<path d="M37.25 30.5945C37.4897 30.5328 37.7411 30.5 38 30.5C39.6569 30.5 41 31.8431 41 33.5C41 33.759 40.9672 34.0103 40.9055 34.25" stroke="#BA7F00" stroke-width="1.5" stroke-linecap="round"/>
<path d="M23 23L53 53" stroke="#BA7F00" stroke-width="1.5" stroke-linecap="round"/>
<path d="M45.4382 29C46.4279 30.3044 47 31.847 47 33.5C47 35.153 46.4279 36.6956 45.4382 38M30.5618 38C29.5721 36.6956 29 35.153 29 33.5C29 32.4438 29.2336 31.4327 29.6604 30.5" stroke="#BA7F00" stroke-width="1.5" stroke-linecap="round" stroke-linejoin="round"/>
<path d="M50.4739 26C52.0694 28.1451 53 30.7248 53 33.5C53 36.2753 52.0694 38.8549 50.4739 41M25.5261 26C23.9305 28.1451 23 30.7248 23 33.5C23 36.2753 23.9305 38.8549 25.5261 41" stroke="#BA7F00" stroke-width="1.5" stroke-linecap="round" stroke-linejoin="round"/>
</svg>
