<svg width="76" height="76" viewBox="0 0 76 76" fill="none" xmlns="http://www.w3.org/2000/svg">
<rect width="76" height="76" rx="8" fill="#FF5F5F"/>
<path d="M41.75 32C41.75 27.8579 38.3921 24.5 34.25 24.5C30.1079 24.5 26.75 27.8579 26.75 32C26.75 36.1421 30.1079 39.5 34.25 39.5C38.3921 39.5 41.75 36.1421 41.75 32Z" stroke="white" stroke-width="1.5" stroke-linecap="round" stroke-linejoin="round"/>
<path d="M23.75 50C23.75 44.201 28.451 39.5 34.25 39.5C36.1625 39.5 37.9556 40.0113 39.5 40.9047" stroke="white" stroke-width="1.5" stroke-linecap="round" stroke-linejoin="round"/>
<path d="M43.25 42.2693C43.25 40.7399 44.5931 39.5 46.25 39.5C47.9069 39.5 49.25 40.7399 49.25 42.2693C49.25 42.8205 49.0755 43.3341 48.7746 43.7657C47.8781 45.0518 46.25 45.5283 46.25 47.0577V47.75M46.2353 51.5H46.2488" stroke="white" stroke-width="1.5" stroke-linecap="round" stroke-linejoin="round"/>
</svg>
