<svg width="76" height="76" viewBox="0 0 76 76" fill="none" xmlns="http://www.w3.org/2000/svg">
<rect width="76" height="76" rx="8" fill="#DB241C"/>
<path d="M47 53H29C26.1716 53 24.7574 53 23.8787 52.1213C23 51.2426 23 49.8284 23 47C23 44.1716 23 42.7574 23.8787 41.8787C24.7574 41 26.1716 41 29 41H47C49.8284 41 51.2426 41 52.1213 41.8787C53 42.7574 53 44.1716 53 47C53 49.8284 53 51.2426 52.1213 52.1213C51.2426 53 49.8284 53 47 53Z" stroke="white" stroke-width="1.5" stroke-linecap="round" stroke-linejoin="round"/>
<path d="M33.5 41V29" stroke="white" stroke-width="1.5" stroke-linecap="round"/>
<path d="M40.9862 47H40.9997M34.993 47H35.0064M28.9997 47H29.0132" stroke="white" stroke-width="1.5" stroke-linecap="round" stroke-linejoin="round"/>
<path d="M25.2166 35C23.8147 33.2768 23 31.2187 23 29.0081C23 26.7906 23.8199 24.7266 25.2299 23M29 25.7386C28.3863 26.7228 28.041 27.8331 28.041 29.0081C28.041 30.1773 28.3828 31.2824 28.9908 32.2628" stroke="white" stroke-width="1.5" stroke-linecap="round"/>
<path d="M33.4941 28.9951H33.5037" stroke="white" stroke-width="1.5" stroke-linecap="round" stroke-linejoin="round"/>
</svg>
